# xmcd
#
# Track frame offsets:
#	150
#	27422
#	43267
#	68625
#	100392
#	118292
#	146607
#	177547
#	202872
#	221595
#
# Disc length: 3119 seconds
#
# Revision: 2
# Processed by: cddbd v1.5.2PL0 Copyright (c) Steve Scherf et al.
# Submitted via: CDmax 2.0
#
DISCID=9a0c2d0a
DTITLE=Various Artist - Blues After Hours: All Instrumental
DYEAR=1997
DGENRE=Blues
TTITLE0=Ronnie Earl - Baby Doll Blues
TTITLE1=Joe Houston and Otis Grand - They Killed Crazy Horse
TTITLE2=Rod Piazza and the Mighty Flyers - 4811 Wadsworth (Blues for George)
TTITLE3=Tony Z - Get Down With the Blues
TTITLE4=Gene "Mighty Flea" Connors - Sanctified
TTITLE5=David Maxwell - Down At PJ's Place
TTITLE6=Mike Morgan and the Crawl  - Blues for Al and Peggy
TTITLE7=Tutu Jones - I'm Not Ashamed To Play the Blues
TTITLE8=Hubert Sumlin - Blues for Henry
TTITLE9=Paul Rishell and Annie Raines - John Henry
EXTD=LABEL =Rounder Records Corp.\nID =edcd7027\nUPC =712136-7027-26\nCOPY
EXTD=RIGHT =1997
EXTT0=
EXTT1=
EXTT2=
EXTT3=
EXTT4=
EXTT5=
EXTT6=
EXTT7=
EXTT8=
EXTT9=
PLAYORDER=
